<svg xmlns="http://www.w3.org/2000/svg" viewBox="0 0 128 72"><g fill="none" stroke="currentColor" stroke-linecap="round" stroke-linejoin="round"><circle cx="28" cy="53" r="14" stroke-width="5"/><circle cx="99" cy="53" r="14" stroke-width="5"/><path d="M28 53l21-24h22l13 24M49 29l-8 24h43l-19-24M65 29l8-12h13M84 17l11 7M53 29l-11-7M72 22h17l6 9H77M50 31l23 22" stroke-width="5"/><path d="M78 17l5-10h12l5 10" stroke-width="4"/><path d="M42 20h17" stroke-width="4"/></g><path fill="currentColor" d="M50 24h22l8 11H45z" opacity=".78"/><text x="64" y="69" text-anchor="middle" font-family="Arial,sans-serif" font-size="10" font-weight="700" letter-spacing="2">NX500</text></svg>